<svg xmlns="http://www.w3.org/2000/svg" viewBox="0 0 512 512" width="512" height="512" aria-hidden="true">
<g transform="translate(0.000000,512.000000) scale(0.100000,-0.100000)"
fill="currentColor" stroke="none">
<path d="M940 4563 c-75 -12 -169 -55 -230 -104 -51 -41 -116 -135 -143 -207
l-22 -57 -3 -1590 c-2 -1095 1 -1610 8 -1655 25 -150 124 -280 267 -348 l78
-37 1655 0 1655 0 58 23 c126 51 230 159 279 287 l23 60 3 1594 c1 1053 -1
1614 -8 1650 -24 132 -123 268 -240 330 -119 63 -40 61 -1775 59 -869 0 -1591
-3 -1605 -5z m3245 -138 c100 -26 172 -85 223 -180 l27 -50 0 -1630 0 -1630
-22 -47 c-28 -61 -104 -137 -168 -168 l-50 -25 -1640 0 -1640 0 -57 28 c-72
35 -140 110 -168 183 -20 55 -20 60 -18 1672 l3 1617 24 50 c28 55 93 125 140
149 88 46 44 45 1711 45 1390 1 1583 -1 1635 -14z"/>
<path d="M2405 4034 c-141 -19 -192 -30 -275 -56 -419 -134 -732 -478 -831
-915 -28 -127 -31 -346 -5 -476 35 -181 114 -361 221 -501 33 -43 66 -86 72
-95 19 -26 -38 -91 -78 -91 -17 0 -42 -6 -57 -14 -43 -22 -558 -549 -581 -594
-29 -58 -28 -141 3 -208 52 -111 192 -165 301 -115 27 12 136 115 327 309 297
300 312 321 294 379 -4 13 5 30 34 58 l39 38 98 -46 c183 -86 337 -120 543
-120 207 1 411 52 578 146 l53 30 45 -44 c39 -38 44 -48 44 -86 0 -39 6 -50
62 -111 173 -187 516 -536 540 -548 107 -56 252 -4 307 109 28 57 28 146 1
201 -12 25 -133 156 -302 329 -255 259 -286 288 -315 287 -26 0 -39 8 -68 44
l-36 45 50 65 c188 246 270 508 258 820 -6 155 -26 255 -79 387 l-31 80 170
172 c94 95 178 183 187 197 55 84 -38 215 -139 196 -34 -7 -63 -31 -202 -168
l-161 -161 -89 90 c-181 183 -390 295 -645 347 -77 16 -277 28 -333 20z m292
-250 c217 -45 435 -171 560 -323 l44 -55 -353 -353 c-194 -195 -375 -373 -401
-395 l-48 -41 -197 196 c-126 125 -207 198 -225 202 -96 24 -189 -58 -171
-153 6 -30 47 -77 252 -287 135 -137 257 -258 271 -267 29 -20 92 -23 124 -7
12 6 216 205 454 442 l431 430 21 -67 c35 -114 44 -190 38 -335 -6 -165 -28
-255 -97 -396 -121 -249 -346 -437 -625 -522 -84 -25 -102 -27 -270 -27 -206
0 -271 13 -420 83 -114 53 -186 102 -277 189 -260 248 -363 606 -275 952 31
119 62 188 130 293 158 242 399 400 687 450 65 11 276 6 347 -9z"/>
</g>
</svg>