<svg xmlns="http://www.w3.org/2000/svg" viewBox="0 0 28 40.11"><defs><style>.a{fill:#1072ba;}.b{fill:#2dbee1;}.c{fill:#ec2227;}.d{fill:#15254c;}.e{fill:#fff;}</style></defs><title>instar_icon</title><path class="a" d="M14,24a19.67,19.67,0,0,1,14,5.84V25.62a22.78,22.78,0,0,0-28,0v4.25A19.69,19.69,0,0,1,14,24Z"/><path class="b" d="M14,25.57a18.16,18.16,0,0,0-14,6.6v3.66a16.08,16.08,0,0,1,28,0V32.17A18.14,18.14,0,0,0,14,25.57Z"/><path class="c" d="M2.07,40.11a12.49,12.49,0,0,1,23.87,0,5.58,5.58,0,0,0,.75-.71,13.42,13.42,0,0,0-25.38,0A5.12,5.12,0,0,0,2.07,40.11Z"/><path class="d" d="M28,25.11V5.25A5.25,5.25,0,0,0,22.75,0H5.25A5.25,5.25,0,0,0,0,5.25V25.11a23.16,23.16,0,0,1,28,0Z"/><path class="e" d="M22,16.24c-.17-2.83-1.5-4.16-4.33-4.33,0,0,0,0,0,0,2.83-.16,4.16-1.49,4.33-4.32,0,0,0,0,0,0,.17,2.83,1.5,4.16,4.33,4.32,0,0,0,0,0,0-2.83.17-4.16,1.5-4.33,4.33C22,16.27,22,16.27,22,16.24Z"/><path class="e" d="M18,8.21a2.12,2.12,0,0,0-2.27-2.27s0,0,0,0A2.1,2.1,0,0,0,18,3.66s0,0,0,0a2.09,2.09,0,0,0,2.26,2.26s0,0,0,0A2.1,2.1,0,0,0,18,8.21S18,8.23,18,8.21Z"/></svg>