<svg xmlns="http://www.w3.org/2000/svg" viewBox="0 0 166.29 40.95"><defs><style>.a{fill:#1072ba;}.b{fill:#2dbee1;}.c{fill:#ec2227;}.d{fill:#15254c;}.e{fill:#fff;}</style></defs><title>instar</title><path class="a" d="M14,24.66A19.67,19.67,0,0,1,28,30.5V26.25a22.78,22.78,0,0,0-28,0V30.5A19.69,19.69,0,0,1,14,24.66Z"/><path class="b" d="M14,26.2A18.18,18.18,0,0,0,0,32.79v3.67a16.08,16.08,0,0,1,28,0V32.79A18.16,18.16,0,0,0,14,26.2Z"/><path class="c" d="M2.07,40.74a12.48,12.48,0,0,1,23.87,0,5.58,5.58,0,0,0,.75-.71A13.41,13.41,0,0,0,1.31,40,5.12,5.12,0,0,0,2.07,40.74Z"/><path class="d" d="M28,25.73V5.88A5.25,5.25,0,0,0,22.75.63H5.25A5.25,5.25,0,0,0,0,5.88V25.73a23.2,23.2,0,0,1,28,0Z"/><path class="e" d="M22,16.86c-.17-2.83-1.5-4.15-4.33-4.32a0,0,0,1,1,0,0C20.47,12.34,21.8,11,22,8.18c0,0,0,0,0,0,.17,2.83,1.5,4.16,4.33,4.32a0,0,0,1,1,0,0C23.5,12.71,22.17,14,22,16.86,22,16.9,22,16.9,22,16.86Z"/><path class="e" d="M18,8.83a2.11,2.11,0,0,0-2.27-2.26s0,0,0,0A2.11,2.11,0,0,0,18,4.29s0,0,0,0a2.1,2.1,0,0,0,2.26,2.26s0,0,0,0A2.1,2.1,0,0,0,18,8.83S18,8.85,18,8.83Z"/><path class="d" d="M45.66.43v25.2H39.91V.43Z"/><path class="d" d="M51.14.43h5.58l9.93,16.13V.43H72.2v25.2H66.62L56.68,9.5V25.63H51.14Z"/><path class="d" d="M90.09,18.9c0-1.69-.76-2.63-5.47-4-5.3-1.51-7.56-4.18-7.56-7.81C77.06,3,80.15,0,85.66,0a11.82,11.82,0,0,1,9.25,4.07L91.06,6.91a6.41,6.41,0,0,0-4.86-2.3c-2.27,0-3.35.93-3.35,2.3s1.08,2.49,5,3.67c5.47,1.66,8.06,3.67,8.06,7.92,0,4.54-3.63,7.56-9.36,7.56A13.63,13.63,0,0,1,76,21.56l4.1-3a8.24,8.24,0,0,0,6.16,2.91C88.68,21.45,90.09,20.45,90.09,18.9Z"/><path class="d" d="M104.85,5.15H97.58V.43h20.26V5.15h-7.27V25.63h-5.72Z"/><path class="d" d="M142,25.63h-6.12l-1.65-5.18h-9.18l-1.62,5.18h-6.12L126.12.43h7.13Zm-15.51-9.72h6.34L129.69,5.83Z"/><path class="d" d="M159.78,15.23l6.45,10.4H160L154.56,16h-3.49v9.61h-5.72V.43h9.18c6.26,0,10.11,2.56,10.11,7.81A7,7,0,0,1,159.78,15.23ZM154.56,4.86h-3.49v6.73h3.49c2.88,0,4.36-1,4.36-3.35S157.44,4.86,154.56,4.86Z"/><path class="d" d="M41.64,31.47v7.66h4.77v1.61H39.89V31.47Z"/><path class="d" d="M58.19,39H53.34l-.79,1.75h-1.9l4.16-9.27h1.91l4.16,9.27H59Zm-2.43-5.57L54,37.36h3.45Z"/><path class="d" d="M73,34.16A1.89,1.89,0,0,1,71.82,36,2.26,2.26,0,0,1,73.31,38c0,2.07-1.55,2.73-3.47,2.73h-4.4V31.47h4.4C71.66,31.47,73,32.29,73,34.16Zm-5.87,1h2.68c1.1,0,1.45-.46,1.45-1s-.34-1.14-1.45-1.14H67.16Zm0,3.92h2.68c.71,0,1.73-.24,1.73-1.11s-1-1.27-1.73-1.27H67.16Z"/><path class="d" d="M87.76,36.16a4.76,4.76,0,1,1-9.52,0,4.76,4.76,0,1,1,9.52,0Zm-7.8,0a3,3,0,1,0,6.08,0,3.05,3.05,0,1,0-6.08,0Z"/><path class="d" d="M101.24,40.74H99.16l-2.7-3.1H94.78v3.1H93V31.46h4.41a3.08,3.08,0,0,1,3.34,3.07,2.76,2.76,0,0,1-2.35,2.92l2.81,3.16ZM94.78,33.1v3h2.66a1.49,1.49,0,1,0,0-3Z"/><path class="d" d="M112.5,39h-4.84l-.8,1.75H105l4.16-9.27H111l4.16,9.27h-1.9Zm-2.42-5.57-1.72,3.94h3.44Z"/><path class="d" d="M120.83,33.06h-2.94V31.47h7.63v1.59h-2.94v7.68h-1.75Z"/><path class="d" d="M139.66,36.16a4.77,4.77,0,1,1-9.53,0,4.77,4.77,0,1,1,9.53,0Zm-7.8,0a3,3,0,1,0,6.08,0,3.05,3.05,0,1,0-6.08,0Z"/><path class="d" d="M153.13,40.74h-2.08l-2.7-3.1h-1.68v3.1h-1.75V31.46h4.41a3.07,3.07,0,0,1,3.34,3.07,2.75,2.75,0,0,1-2.34,2.92l2.8,3.16Zm-6.46-7.64v3h2.66a1.49,1.49,0,1,0,0-3Z"/><path class="d" d="M161.72,35.3l2.47-3.83h2.1v.08l-3.69,5.36v3.83h-1.75V36.91l-3.56-5.36v-.08h2.08Z"/></svg>