<svg xmlns="http://www.w3.org/2000/svg" viewBox="0 0 1536 1792" aria-hidden="true" focusable="false"><path fill="currentColor" d="M1344 256Q1370 256 1389.0 275.0Q1408 294 1408 320V1984Q1408 2010 1389.0 2029.0Q1370 2048 1344 2048H64Q38 2048 19.0 2029.0Q0 2010 0 1984V320Q0 294 19.0 275.0Q38 256 64 256ZM512 544V608Q512 622 521.0 631.0Q530 640 544 640H608Q622 640 631.0 631.0Q640 622 640 608V544Q640 530 631.0 521.0Q622 512 608 512H544Q530 512 521.0 521.0Q512 530 512 544ZM512 800V864Q512 878 521.0 887.0Q530 896 544 896H608Q622 896 631.0 887.0Q640 878 640 864V800Q640 786 631.0 777.0Q622 768 608 768H544Q530 768 521.0 777.0Q512 786 512 800ZM512 1056V1120Q512 1134 521.0 1143.0Q530 1152 544 1152H608Q622 1152 631.0 1143.0Q640 1134 640 1120V1056Q640 1042 631.0 1033.0Q622 1024 608 1024H544Q530 1024 521.0 1033.0Q512 1042 512 1056ZM512 1312V1376Q512 1390 521.0 1399.0Q530 1408 544 1408H608Q622 1408 631.0 1399.0Q640 1390 640 1376V1312Q640 1298 631.0 1289.0Q622 1280 608 1280H544Q530 1280 521.0 1289.0Q512 1298 512 1312ZM384 1632V1568Q384 1554 375.0 1545.0Q366 1536 352 1536H288Q274 1536 265.0 1545.0Q256 1554 256 1568V1632Q256 1646 265.0 1655.0Q274 1664 288 1664H352Q366 1664 375.0 1655.0Q384 1646 384 1632ZM384 1376V1312Q384 1298 375.0 1289.0Q366 1280 352 1280H288Q274 1280 265.0 1289.0Q256 1298 256 1312V1376Q256 1390 265.0 1399.0Q274 1408 288 1408H352Q366 1408 375.0 1399.0Q384 1390 384 1376ZM384 1120V1056Q384 1042 375.0 1033.0Q366 1024 352 1024H288Q274 1024 265.0 1033.0Q256 1042 256 1056V1120Q256 1134 265.0 1143.0Q274 1152 288 1152H352Q366 1152 375.0 1143.0Q384 1134 384 1120ZM384 864V800Q384 786 375.0 777.0Q366 768 352 768H288Q274 768 265.0 777.0Q256 786 256 800V864Q256 878 265.0 887.0Q274 896 288 896H352Q366 896 375.0 887.0Q384 878 384 864ZM384 608V544Q384 530 375.0 521.0Q366 512 352 512H288Q274 512 265.0 521.0Q256 530 256 544V608Q256 622 265.0 631.0Q274 640 288 640H352Q366 640 375.0 631.0Q384 622 384 608ZM896 1888V1696Q896 1682 887.0 1673.0Q878 1664 864 1664H544Q530 1664 521.0 1673.0Q512 1682 512 1696V1888Q512 1902 521.0 1911.0Q530 1920 544 1920H864Q878 1920 887.0 1911.0Q896 1902 896 1888ZM896 1376V1312Q896 1298 887.0 1289.0Q878 1280 864 1280H800Q786 1280 777.0 1289.0Q768 1298 768 1312V1376Q768 1390 777.0 1399.0Q786 1408 800 1408H864Q878 1408 887.0 1399.0Q896 1390 896 1376ZM896 1120V1056Q896 1042 887.0 1033.0Q878 1024 864 1024H800Q786 1024 777.0 1033.0Q768 1042 768 1056V1120Q768 1134 777.0 1143.0Q786 1152 800 1152H864Q878 1152 887.0 1143.0Q896 1134 896 1120ZM896 864V800Q896 786 887.0 777.0Q878 768 864 768H800Q786 768 777.0 777.0Q768 786 768 800V864Q768 878 777.0 887.0Q786 896 800 896H864Q878 896 887.0 887.0Q896 878 896 864ZM896 608V544Q896 530 887.0 521.0Q878 512 864 512H800Q786 512 777.0 521.0Q768 530 768 544V608Q768 622 777.0 631.0Q786 640 800 640H864Q878 640 887.0 631.0Q896 622 896 608ZM1152 1632V1568Q1152 1554 1143.0 1545.0Q1134 1536 1120 1536H1056Q1042 1536 1033.0 1545.0Q1024 1554 1024 1568V1632Q1024 1646 1033.0 1655.0Q1042 1664 1056 1664H1120Q1134 1664 1143.0 1655.0Q1152 1646 1152 1632ZM1152 1376V1312Q1152 1298 1143.0 1289.0Q1134 1280 1120 1280H1056Q1042 1280 1033.0 1289.0Q1024 1298 1024 1312V1376Q1024 1390 1033.0 1399.0Q1042 1408 1056 1408H1120Q1134 1408 1143.0 1399.0Q1152 1390 1152 1376ZM1152 1120V1056Q1152 1042 1143.0 1033.0Q1134 1024 1120 1024H1056Q1042 1024 1033.0 1033.0Q1024 1042 1024 1056V1120Q1024 1134 1033.0 1143.0Q1042 1152 1056 1152H1120Q1134 1152 1143.0 1143.0Q1152 1134 1152 1120ZM1152 864V800Q1152 786 1143.0 777.0Q1134 768 1120 768H1056Q1042 768 1033.0 777.0Q1024 786 1024 800V864Q1024 878 1033.0 887.0Q1042 896 1056 896H1120Q1134 896 1143.0 887.0Q1152 878 1152 864ZM1152 608V544Q1152 530 1143.0 521.0Q1134 512 1120 512H1056Q1042 512 1033.0 521.0Q1024 530 1024 544V608Q1024 622 1033.0 631.0Q1042 640 1056 640H1120Q1134 640 1143.0 631.0Q1152 622 1152 608Z"/></svg>