<svg xmlns="http://www.w3.org/2000/svg" viewBox="0 0 2176 1792" aria-hidden="true" focusable="false"><path fill="currentColor" d="M620 1376Q510 1440 352 1440H224V1376H160Q147 1376 137.5 1352.5Q128 1329 128 1296Q128 1272 135 1247Q77 1245 38.5 1236.5Q0 1228 0.0 1216.0Q0 1204 38.5 1195.5Q77 1187 135 1185Q128 1160 128 1136Q128 1103 137.5 1079.5Q147 1056 160 1056H224V992H352Q510 992 620 1056H1733Q1775 1063 1839.5 1074.0Q1904 1085 1920 1088Q2009 1103 2070.0 1128.5Q2131 1154 2153.5 1176.0Q2176 1198 2176.0 1216.0Q2176 1234 2153.5 1256.0Q2131 1278 2070.0 1303.5Q2009 1329 1920 1344Q1904 1347 1839.5 1358.0Q1775 1369 1733 1376ZM1739 1124Q1792 1160 1792.0 1216.0Q1792 1272 1739 1308L1820 1338Q1888 1290 1888.0 1216.0Q1888 1142 1820 1094ZM625 1392H1640Q1423 1430 1184 1472Q1127 1472 1071.0 1496.0Q1015 1520 988 1544L960 1568L672 1856Q646 1882 601.5 1901.0Q557 1920 512 1920H416L323 1456H352Q509 1456 625 1392ZM352 976H323L416 512H512Q558 512 602.0 531.0Q646 550 672 576L960 864Q964 868 971.0 874.5Q978 881 1001.5 897.5Q1025 914 1050.0 926.5Q1075 939 1111.5 949.5Q1148 960 1184 960L1640 1040H625Q509 976 352 976Z"/></svg>